{"title":"The History Boys (2006) 720p HDRip x264-pong","uid":14555730,"size":904688030,"categoryP":"video","categoryS":"movies","magnet":"?xt=urn:btih:adec1517944be81d48928e33f0d87c881219466a&amp;dn=The+History+Boys+%282006%29+720p+HDRip+x264-pong&amp;tr=udp%3A%2F%2Ftracker.leechers-paradise.org%3A6969&amp;tr=udp%3A%2F%2Fzer0day.ch%3A1337&amp;tr=udp%3A%2F%2Fopen.demonii.com%3A1337&amp;tr=udp%3A%2F%2Ftracker.coppersurfer.tk%3A6969&amp;tr=udp%3A%2F%2Fexodus.desync.com%3A6969","seeders":1,"leechers":0,"uploader":"Pongydog","files":1,"time":1462681758,"description":"An unruly class of gifted and charming teenage boys are taught by two eccentric and innovative teachers, as their headmaster pushes for them all to get accepted into Oxford or Cambridge. \r\n\r\nDirector: Nicholas Hytner  \r\n\r\nWriters: Alan Bennett (screenplay),  Alan Bennett (play)  \r\n\r\nStars: Richard Griffiths,  Frances de la Tour,  Clive Merrison \r\n\r\nGeneral\r\nComplete name                            : C:Usersuser1VideosThe History Boys (2006) 720p HDRip x264-pong.mp4\r\nFormat                                   : MPEG-4\r\nFormat profile                           : Base Media\r\nCodec ID                                 : isom\r\nFile size                                : 863 MiB\r\nDuration                                 : 1h 47mn\r\nOverall bit rate                         : 1 120 Kbps\r\nEncoded date                             : UTC 2016-05-04 02:39:28\r\nTagged date                              : UTC 2016-05-04 02:39:28\r\nWriting application                      : Lavf55.23.103\r\n\r\nVideo\r\nID                                       : 1\r\nFormat                                   : AVC\r\nFormat/Info                              : Advanced Video Codec\r\nFormat profile                           :   \r\nFormat settings, CABAC                   : Yes\r\nFormat settings, ReFrames                : 8 frames\r\nCodec ID                                 : avc1\r\nCodec ID/Info                            : Advanced Video Coding\r\nDuration                                 : 1h 47mn\r\nBit rate                                 : 1 000 Kbps\r\nWidth                                    : 1 280 pixels\r\nHeight                                   : 720 pixels\r\nDisplay aspect ratio                     : 16:9\r\nFrame rate mode                          : Constant\r\nFrame rate                               : 50.000 fps\r\nColor space                              : YUV\r\nChroma subsampling                       : 4:2:0\r\nBit depth                                : 8 bits\r\nScan type                                : Progressive\r\nBits/(Pixel*Frame)                       : 0.022\r\nStream size                              : 770 MiB (89%)\r\nWriting library                          : x264 core 140 r2345\r\nEncoding settings                        : cabac=1 / ref=8 / deblock=1:-1:-1 / analyse=0x3:0x133 / me=umh / subme=9 / psy=1 / psy_rd=1.00:0.15 / mixed_ref=0 / me_range=16 / chroma_me=1 / trellis=2 / 8x8dct=1 / cqm=0 / deadzone=21,11 / fast_pskip=1 / chroma_qp_offset=-3 / threads=3 / lookahead_threads=1 / sliced_threads=0 / nr=0 / decimate=1 / interlaced=0 / bluray_compat=0 / constrained_intra=0 / bframes=3 / b_pyramid=0 / b_adapt=2 / b_bias=0 / direct=3 / weightb=1 / open_gop=0 / weightp=2 / keyint=500 / keyint_min=50 / scenecut=40 / intra_refresh=0 / rc_lookahead=60 / rc=2pass / mbtree=1 / bitrate=1000 / ratetol=1.0 / qcomp=0.60 / qpmin=10 / qpmax=69 / qpstep=4 / cplxblur=20.0 / qblur=0.5 / vbv_maxrate=24000 / vbv_bufsize=24000 / nal_hrd=none / filler=0 / ip_ratio=1.40 / aq=1:1.00\r\nEncoded date                             : UTC 2016-05-04 02:39:28\r\nTagged date                              : UTC 2016-05-04 02:39:28\r\n\r\nAudio\r\nID                                       : 2\r\nFormat                                   : AAC\r\nFormat/Info                              : Advanced Audio Codec\r\nFormat profile                           : LC\r\nCodec ID                                 : 40\r\nDuration                                 : 1h 47mn\r\nBit rate mode                            : Constant\r\nBit rate                                 : 112 Kbps\r\nChannel(s)                               : 2 channels\r\nChannel positions                        : Front: L R\r\nSampling rate                            : 48.0 KHz\r\nCompression mode                         : Lossy\r\nStream size                              : 86.1 MiB (10%)\r\nEncoded date                             : UTC 2016-05-04 02:39:28\r\nTagged date                              : UTC 2016-05-04 02:39:28","torrent":{"xt":"urn:btih:adec1517944be81d48928e33f0d87c881219466a","amp;dn":"The+History+Boys+%282006%29+720p+HDRip+x264-pong","amp;tr":["udp%3A%2F%2Ftracker.leechers-paradise.org%3A6969","udp%3A%2F%2Fzer0day.ch%3A1337","udp%3A%2F%2Fopen.demonii.com%3A1337","udp%3A%2F%2Ftracker.coppersurfer.tk%3A6969","udp%3A%2F%2Fexodus.desync.com%3A6969"],"infoHash":"adec1517944be81d48928e33f0d87c881219466a","infoHashBuffer":{"type":"Buffer","data":[173,236,21,23,148,75,232,29,72,146,142,51,240,216,124,136,18,25,70,106]},"announce":[],"urlList":[]}}